<svg id="图层_1" data-name="图层 1" xmlns="http://www.w3.org/2000/svg" viewBox="0 0 89 25"><defs><style>.cls-1{fill:none;stroke:#000;}.cls-1,.cls-4{stroke-linecap:round;stroke-miterlimit:10;stroke-width:4px;}.cls-2{fill:#33caff;}.cls-3{fill:#7b7b7b;}.cls-4{fill:#22c1ff;stroke:#2d2d2d;}</style></defs><title>未标题-1</title><path class="cls-1" d="M35.55,21.27" transform="translate(0)"/><path class="cls-1" d="M33.76,9.4" transform="translate(0)"/><rect class="cls-2" x="14.15" y="12.43" width="2.85" height="11.6"/><path class="cls-2" d="M43.7,12.16s8.4.83,5.21,9.39c-.53,1.42-2.32,2.21-5.21,3Z" transform="translate(0)"/><path class="cls-3" d="M43.67,24.89a6.74,6.74,0,1,1,6.74-6.74A6.74,6.74,0,0,1,43.67,24.89Zm0-12.37a5.63,5.63,0,1,0,5.63,5.63A5.64,5.64,0,0,0,43.67,12.52Z" transform="translate(0)"/><path class="cls-3" d="M35,25a.55.55,0,0,1-.55-.55V11.14c-.57-.95-5-7.69-16.49-7.69C6.77,3.46,1.78,10.2,1.1,11.2v4.73a.55.55,0,1,1-1.1,0v-5l.08-.13c.21-.34,5.24-8.4,17.88-8.4,13,0,17.35,8,17.53,8.39l.06.12V24.45A.55.55,0,0,1,35,25Z" transform="translate(0)"/><circle class="cls-2" cx="28.81" cy="18.15" r="6.18"/><path class="cls-3" d="M28.81,24.89a6.74,6.74,0,1,1,6.74-6.74A6.74,6.74,0,0,1,28.81,24.89Zm0-12.37a5.63,5.63,0,1,0,5.63,5.63A5.64,5.64,0,0,0,28.81,12.52Z" transform="translate(0)"/><circle class="cls-2" cx="20.33" cy="8.66" r="1.55"/><path class="cls-3" d="M20.33,10.76a2.1,2.1,0,1,1,2.1-2.1A2.1,2.1,0,0,1,20.33,10.76Zm0-3.09a1,1,0,1,0,1,1A1,1,0,0,0,20.33,7.67Z" transform="translate(0)"/><circle class="cls-2" cx="2.1" cy="15.84" r="1.55"/><path class="cls-3" d="M2.1,17.94a2.1,2.1,0,1,1,2.1-2.1A2.1,2.1,0,0,1,2.1,17.94Zm0-3.09a1,1,0,1,0,1,1A1,1,0,0,0,2.1,14.85Z" transform="translate(0)"/><path class="cls-3" d="M20.33,25a.55.55,0,0,1-.55-.55V12a.55.55,0,1,1,1.1,0V24.45A.55.55,0,0,1,20.33,25Z" transform="translate(0)"/><circle class="cls-2" cx="65.63" cy="8.55" r="1.55"/><path class="cls-3" d="M65.63,10.65a2.1,2.1,0,1,1,2.1-2.1A2.1,2.1,0,0,1,65.63,10.65Zm0-3.09a1,1,0,1,0,1,1A1,1,0,0,0,65.63,7.56Z" transform="translate(0)"/><path class="cls-3" d="M65.63,25a.55.55,0,0,1-.55-.55V12a.55.55,0,0,1,1.1,0V24.45A.55.55,0,0,1,65.63,25Z" transform="translate(0)"/><path class="cls-3" d="M77.4,25a.55.55,0,0,1-.46-.25L68.79,12.46a.55.55,0,1,1,.92-.61l8.15,12.29a.55.55,0,0,1-.46.86Z" transform="translate(0)"/><path class="cls-3" d="M69.39,25a.55.55,0,0,1-.46-.86L77.2,11.85a.55.55,0,1,1,.92.62L69.85,24.76A.55.55,0,0,1,69.39,25Z" transform="translate(0)"/><path class="cls-2" d="M80.71,13.05h3.87a0,0,0,0,1,0,0V24.38a0,0,0,0,1,0,0H83a2.27,2.27,0,0,1-2.27-2.27V13.05A0,0,0,0,1,80.71,13.05Z"/><path class="cls-3" d="M84.54,25a5.87,5.87,0,0,1-2.82-.76,2.91,2.91,0,0,1-1.55-2.52V11.95a.55.55,0,0,1,1.1,0v9.77a1.78,1.78,0,0,0,1,1.55,4.62,4.62,0,0,0,4.69-.05,1.78,1.78,0,0,0,1-1.54V11.95a.55.55,0,0,1,1.1,0v9.73a2.91,2.91,0,0,1-1.52,2.5A5.93,5.93,0,0,1,84.54,25Z" transform="translate(0)"/><path class="cls-4" d="M62.21,24.73" transform="translate(0)"/><path class="cls-4" d="M62.21,24.73" transform="translate(0)"/><circle class="cls-2" cx="61.21" cy="22.9" r="1.55"/><path class="cls-3" d="M61.21,25a2.1,2.1,0,1,1,2.1-2.1A2.1,2.1,0,0,1,61.21,25Zm0-3.09a1,1,0,1,0,1,1A1,1,0,0,0,61.21,21.91Z" transform="translate(0)"/><path class="cls-3" d="M51.89,25a1.08,1.08,0,0,1-.83-1.78L60,12.6l-8,.07h0a.55.55,0,0,1,0-1.1l8-.08h0a1.11,1.11,0,0,1,.85,1.83L51.94,23.9l9.58,0h0a.55.55,0,0,1,0,1.1l-9.63,0Z" transform="translate(0)"/><path class="cls-3" d="M17.74,24.86H15.46a1.75,1.75,0,0,1-1.86-1.62V.52a.55.55,0,0,1,1.1,0V23.24a.68.68,0,0,0,.75.57h2.28a.52.52,0,1,1,0,1Z" transform="translate(0)"/></svg>